<svg width="25" height="25" viewBox="0 0 25 25" fill="none" xmlns="http://www.w3.org/2000/svg">
<path d="M2.08333 16.7084C1.53105 16.7084 1.08333 17.1561 1.08333 17.7084C1.08333 18.2607 1.53105 18.7084 2.08333 18.7084V16.7084ZM5.20833 9.37504H4.20833H5.20833ZM19.7917 9.37504H20.7917H19.7917ZM14.3021 21.875L15.1671 22.3768C15.3465 22.0675 15.3471 21.6858 15.1686 21.3759C14.9901 21.066 14.6597 20.875 14.3021 20.875V21.875ZM10.6979 21.875V20.875C10.3403 20.875 10.0099 21.066 9.83138 21.3759C9.65288 21.6858 9.65347 22.0675 9.83291 22.3768L10.6979 21.875ZM22.9167 16.7084H2.08333V18.7084H22.9167V16.7084ZM2.08333 18.7084C4.36151 18.7084 6.20833 16.8615 6.20833 14.5834H4.20833C4.20833 15.757 3.25694 16.7084 2.08333 16.7084V18.7084ZM6.20833 14.5834V9.37504H4.20833V14.5834H6.20833ZM6.20833 9.37504C6.20833 5.90025 9.02521 3.08337 12.5 3.08337V1.08337C7.92064 1.08337 4.20833 4.79568 4.20833 9.37504H6.20833ZM12.5 3.08337C15.9748 3.08337 18.7917 5.90025 18.7917 9.37504H20.7917C20.7917 4.79568 17.0794 1.08337 12.5 1.08337V3.08337ZM18.7917 9.37504V14.5834H20.7917V9.37504H18.7917ZM18.7917 14.5834C18.7917 16.8615 20.6385 18.7084 22.9167 18.7084V16.7084C21.7431 16.7084 20.7917 15.757 20.7917 14.5834H18.7917ZM13.4371 21.3733C13.2433 21.7074 12.8862 21.913 12.5 21.913V23.913C13.5993 23.913 14.6155 23.3277 15.1671 22.3768L13.4371 21.3733ZM12.5 21.913C12.1138 21.913 11.7567 21.7074 11.5629 21.3733L9.83291 22.3768C10.3845 23.3277 11.4007 23.913 12.5 23.913V21.913ZM10.6979 22.875H14.3021V20.875H10.6979V22.875Z" fill="#F5F7FA"/>
</svg>
