<svg width="120" height="120" viewBox="0 0 120 120" fill="none" xmlns="http://www.w3.org/2000/svg">
<path d="M60 110C32.3858 110 10 87.6141 10 59.9999C10 32.3856 32.3858 9.99988 60 9.99988C87.6142 9.99988 110 32.3856 110 59.9999C109.97 87.6016 87.6017 109.97 60 110ZM60 19.9999C37.9086 19.9999 20 37.9085 20 59.9999C20 82.0913 37.9086 99.9999 60 99.9999C82.0914 99.9999 100 82.0913 100 59.9999C99.9752 37.9188 82.0811 20.0247 60 19.9999ZM50 89.9999C49.93 89.9999 49.3 89.9749 45 89.9749H40V89.8549C40 89.7999 40 89.7299 40 89.6449C40 89.4799 40 89.2549 40.035 88.9799C40.09 88.2349 40.175 87.5249 40.295 86.8199C40.6695 84.5437 41.3771 82.335 42.395 80.2649C43.7849 77.4066 45.9068 74.9673 48.545 73.1949L48.615 73.1499L48.695 73.0899L48.77 73.0499H48.8H48.835H48.86H48.895L48.95 73.0149C52.274 70.985 56.1056 69.9395 60 69.9999C64.0479 69.8922 68.0355 70.998 71.45 73.1749C74.0859 74.95 76.2072 77.3886 77.6 80.2449C78.6218 82.313 79.328 84.5225 79.695 86.7999C79.855 87.7399 79.925 88.4949 79.955 88.9599C79.955 89.1799 79.985 89.3999 79.99 89.6249C79.99 89.7099 79.99 89.7799 79.99 89.8349V89.9349C79.99 89.9349 79.79 89.9349 74.99 89.9349C70.46 89.9349 69.99 89.9349 69.99 89.9349C69.99 89.9349 69.99 89.7899 69.99 89.6399C69.99 89.3649 69.925 88.9399 69.835 88.4099C69.6253 87.1141 69.2278 85.8559 68.655 84.6749C68.0358 83.3766 67.0856 82.2643 65.9 81.4499C64.1182 80.3982 62.0663 79.8939 60 79.9999C57.9286 79.909 55.8764 80.4307 54.1 81.4999C52.916 82.3161 51.9662 83.4279 51.345 84.7249C50.7732 85.9063 50.3758 87.1644 50.165 88.4599C50.094 88.8671 50.0439 89.2776 50.015 89.6899C50.015 89.8299 50.015 89.9299 50.015 89.9799H50V89.9999ZM42.5 59.9999C38.3579 59.9999 35 56.642 35 52.4999C35 48.3577 38.3579 44.9999 42.5 44.9999C46.6421 44.9999 50 48.3577 50 52.4999C50 56.642 46.6421 59.9999 42.5 59.9999ZM77.465 59.9299C73.3422 59.9299 70 56.5877 70 52.4649C70 48.3421 73.3422 44.9999 77.465 44.9999C81.5878 44.9999 84.93 48.3421 84.93 52.4649C84.9245 56.5854 81.5855 59.9244 77.465 59.9299Z" fill="#34C369"/>
</svg>
